<?xml version="1.0" encoding="UTF-8" standalone="no"?>
<svg
   xmlns:dc="http://purl.org/dc/elements/1.1/"
   xmlns:cc="http://creativecommons.org/ns#"
   xmlns:rdf="http://www.w3.org/1999/02/22-rdf-syntax-ns#"
   xmlns:svg="http://www.w3.org/2000/svg"
   xmlns="http://www.w3.org/2000/svg"
   xmlns:sodipodi="http://sodipodi.sourceforge.net/DTD/sodipodi-0.dtd"
   xmlns:inkscape="http://www.inkscape.org/namespaces/inkscape"
   inkscape:version="1.0 (4035a4fb49, 2020-05-01)"
   sodipodi:docname="close-button-w.svg"
   xml:space="preserve"
   style="enable-background:new 0 0 357 357;"
   viewBox="0 0 357 357"
   height="357px"
   width="357px"
   y="0px"
   x="0px"
   id="Capa_1"
   version="1.1"><metadata
   id="metadata42"><rdf:RDF><cc:Work
       rdf:about=""><dc:format>image/svg+xml</dc:format><dc:type
         rdf:resource="http://purl.org/dc/dcmitype/StillImage" /><dc:title></dc:title></cc:Work></rdf:RDF></metadata><defs
   id="defs40" /><sodipodi:namedview
   inkscape:current-layer="Capa_1"
   inkscape:window-maximized="1"
   inkscape:window-y="476"
   inkscape:window-x="1912"
   inkscape:cy="178.5"
   inkscape:cx="178.5"
   inkscape:zoom="2.8235294"
   showgrid="false"
   id="namedview38"
   inkscape:window-height="1377"
   inkscape:window-width="3440"
   inkscape:pageshadow="2"
   inkscape:pageopacity="0"
   guidetolerance="10"
   gridtolerance="10"
   objecttolerance="10"
   borderopacity="1"
   bordercolor="#666666"
   pagecolor="#ffffff" />
<g
   id="g5">
	<g
   id="close">
		<polygon
   id="polygon2"
   points="357,35.7 321.3,0 178.5,142.8 35.7,0 0,35.7 142.8,178.5 0,321.3 35.7,357 178.5,214.2 321.3,357 357,321.3     214.2,178.5   " />
	</g>
</g>
<g
   id="g7">
</g>
<g
   id="g9">
</g>
<g
   id="g11">
</g>
<g
   id="g13">
</g>
<g
   id="g15">
</g>
<g
   id="g17">
</g>
<g
   id="g19">
</g>
<g
   id="g21">
</g>
<g
   id="g23">
</g>
<g
   id="g25">
</g>
<g
   id="g27">
</g>
<g
   id="g29">
</g>
<g
   id="g31">
</g>
<g
   id="g33">
</g>
<g
   id="g35">
</g>
<path
   id="path44"
   d="M 17.973514,339.02649 0.35404969,321.40702 71.806906,249.95351 143.25976,178.5 71.806906,107.04649 0.35404969,35.592978 17.973514,17.973513 35.592978,0.35404967 107.04649,71.806906 178.5,143.25976 249.95351,71.806906 321.40702,0.35404967 339.02649,17.973513 356.64594,35.592978 285.19309,107.04649 213.74024,178.5 l 71.45285,71.45351 71.45285,71.45351 -17.61945,17.61947 -17.61947,17.61945 L 249.95351,285.19309 178.5,213.74024 107.04649,285.19309 35.592978,356.64594 Z"
   style="fill:#ffffff;stroke-width:0.354167" /></svg>
